HIERARCHY
ROOT Hips
{
	OFFSET	0.00	0.00	0.00
	CHANNELS 6 Xposition Yposition Zposition Zrotation Xrotation Yrotation
	JOINT LeftUpperLeg
	{
		OFFSET	 0.100000	-0.066564	-0.000554
		CHANNELS 3 Zrotation Xrotation Yrotation
		JOINT LeftLowerLeg
		{
			OFFSET	 0.002447	-0.463436	-0.005172
			CHANNELS 3 Zrotation Xrotation Yrotation
			JOINT LeftFoot
			{
				OFFSET	-0.002447	-0.420480	-0.020576
				CHANNELS 3 Zrotation Xrotation Yrotation
				JOINT LeftToes
				{
					OFFSET	 0.003734	-0.104922	 0.126407
					CHANNELS 3 Zrotation Xrotation Yrotation
					End Site
					{
						OFFSET	 0.000000	 0.000000	 0.059955
					}
				}
			}
		}
	}
	JOINT RightUpperLeg
	{
		OFFSET	-0.100000	-0.066564	-0.000554
		CHANNELS 3 Zrotation Xrotation Yrotation
		JOINT RightLowerLeg
		{
			OFFSET	-0.002447	-0.463436	-0.005146
			CHANNELS 3 Zrotation Xrotation Yrotation
			JOINT RightFoot
			{
				OFFSET	 0.002447	-0.420479	-0.020602
				CHANNELS 3 Zrotation Xrotation Yrotation
				JOINT RightToes
				{
					OFFSET	-0.003734	-0.104922	 0.126407
					CHANNELS 3 Zrotation Xrotation Yrotation
					End Site
					{
						OFFSET	-0.000000	 0.000000	 0.059955
					}
				}
			}
		}
	}
	JOINT Spine
	{
		OFFSET	 0.000000	 0.099235	-0.012273
		CHANNELS 3 Zrotation Xrotation Yrotation
		JOINT Chest
		{
			OFFSET	-0.000001	 0.116455	-0.014223
			CHANNELS 3 Zrotation Xrotation Yrotation
			JOINT UpperChest
			{
				OFFSET	 0.000001	 0.133602	-0.016265
				CHANNELS 3 Zrotation Xrotation Yrotation
				JOINT LeftShoulder
				{
					OFFSET	 0.061058	 0.091105	 0.007056
					CHANNELS 3 Zrotation Xrotation Yrotation
					JOINT LeftUpperArm
					{
						OFFSET	 0.133942	-0.002659	-0.026009
						CHANNELS 3 Zrotation Xrotation Yrotation
						JOINT LeftLowerArm
						{
							OFFSET	 0.274047	 0.000000	 0.000000
							CHANNELS 3 Zrotation Xrotation Yrotation
							JOINT LeftHand
							{
								OFFSET	 0.276145	 0.000000	 0.000000
								CHANNELS 3 Zrotation Xrotation Yrotation
								End Site
								{
									OFFSET	 0.165687	 0.000000	 0.000000
								}
							}
						}
					}
				}
				JOINT Neck
				{
					OFFSET	 0.000000	 0.150325	 0.007929
					CHANNELS 3 Zrotation Xrotation Yrotation
					JOINT Head
					{
						OFFSET	 0.000000	 0.103218	 0.031424
						CHANNELS 3 Zrotation Xrotation Yrotation
						End Site
						{
							OFFSET	 0.000000	 0.061931	 0.018855
						}
					}
				}
				JOINT RightShoulder
				{
					OFFSET	-0.061057	 0.091105	 0.007056
					CHANNELS 3 Zrotation Xrotation Yrotation
					JOINT RightUpperArm
					{
						OFFSET	-0.133943	-0.002660	-0.026009
						CHANNELS 3 Zrotation Xrotation Yrotation
						JOINT RightLowerArm
						{
							OFFSET	-0.274047	 0.000000	 0.000000
							CHANNELS 3 Zrotation Xrotation Yrotation
							JOINT RightHand
							{
								OFFSET	-0.276145	 0.000000	 0.000000
								CHANNELS 3 Zrotation Xrotation Yrotation
								End Site
								{
									OFFSET	-0.165687	 0.000000	 0.000000
								}
							}
						}
					}
				}
			}
		}
	}
}
MOTION
Frames:    11
Frame Time: 0.03333334
-0.289000	 1.050990	 0.597350	-2.041543	 5.530137	 5.194894	 8.425328	-16.120560	 7.852165	-0.006556	 0.092387	 0.000499	-8.338692	 8.016248	 9.841475	-0.000236	 0.346892	-0.001162	 0.137636	-10.217610	 11.560900	-1.771113	 27.125710	 0.427897	 6.414879	-16.064340	-5.404926	-0.000464	 0.437392	 0.229094	 0.946826	 1.811876	-2.060593	-0.000000	 0.000000	 0.000000	 1.962709	 3.595526	-4.159905	 2.330712	 2.658174	 15.370650	-79.679310	-11.199700	-20.307490	-17.791550	 17.433770	-62.321490	 56.268900	 18.290520	-27.464130	 17.806870	 12.854920	 13.984490	 17.504610	 12.768480	 13.608760	-6.094192	 2.721924	-20.473960	 85.524790	 9.495191	 9.113527	 35.949180	 42.157860	 61.341680	-17.109570	-12.408350	 7.616284
-0.317320	 1.051520	 0.566290	-1.940045	 6.204967	 7.123519	 10.848300	-17.231250	 10.997790	-0.129582	 1.989892	 0.000723	-14.834550	 2.137062	 6.302955	-0.000234	 0.331074	 0.000103	 0.673325	-7.519552	 9.550406	-1.098109	 16.084970	 0.166466	 2.506667	-14.301330	-7.539602	 0.000405	 0.357935	 0.096774	 1.479788	 1.938667	-1.431924	-0.000000	 0.000000	 0.000000	 3.015956	 3.845785	-2.919497	 2.713806	 2.809242	 15.690320	-83.028680	-12.326100	-14.295110	-26.412450	 18.482030	-63.179240	 35.798500	 9.928407	-14.117580	 17.307950	 11.526780	 14.281980	 16.950330	 11.079040	 13.720120	-6.124685	 2.631439	-20.821310	 85.009740	 9.232291	 8.048229	 34.917610	 41.249930	 62.260360	-20.603440	-7.005718	 10.768240
-0.332590	 1.051070	 0.548490	-1.923368	 6.556519	 8.761350	 11.904800	-20.686160	 12.489380	-0.408138	 6.462910	 0.018385	-13.842530	-2.902130	 4.231693	 0.000149	 0.460513	 0.000406	 1.049465	-7.174338	 8.275158	-0.850458	 12.941900	 0.106267	 0.591478	-14.033410	-8.467707	 0.000542	 1.519277	 0.000201	 1.756863	 2.073322	-1.177326	-0.000000	 0.000000	 0.000000	 3.567835	 4.117274	-2.425640	 3.389848	 1.638250	 15.589500	-83.781640	-12.343630	-10.546460	-30.408740	 18.790080	-60.109340	 26.505810	 4.355104	-11.755740	 17.418270	 10.828340	 14.290080	 16.961170	 10.387500	 13.861930	-6.211167	 3.075794	-21.275270	 84.764290	 9.357251	 7.901547	 31.704580	 41.071770	 65.137230	-22.593620	-5.246584	 11.475540
-0.332590	 1.051070	 0.548490	-1.923368	 6.556519	 8.761350	 11.904800	-20.686160	 12.489380	-0.408138	 6.462910	 0.018385	-13.842530	-2.902130	 4.231693	 0.000149	 0.460513	 0.000406	 1.049465	-7.174338	 8.275158	-0.850458	 12.941900	 0.106267	 0.591478	-14.033410	-8.467707	 0.000542	 1.519277	 0.000201	 1.756863	 2.073322	-1.177326	-0.000000	 0.000000	 0.000000	 3.567835	 4.117274	-2.425640	 3.389848	 1.638250	 15.589500	-83.781640	-12.343630	-10.546460	-30.408740	 18.790080	-60.109340	 26.505810	 4.355104	-11.755740	 17.418270	 10.828340	 14.290080	 16.961170	 10.387500	 13.861930	-6.211167	 3.075794	-21.275270	 84.764290	 9.357251	 7.901547	 31.704580	 41.071770	 65.137230	-22.593620	-5.246584	 11.475540
-0.346870	 1.048600	 0.531130	-1.995025	 6.800777	 10.838060	 11.461880	-20.775570	 12.897470	-0.255004	 4.166982	 0.005739	-9.917693	-4.305541	 4.619086	 0.000553	 0.642962	 0.000419	 1.732920	-9.263231	 6.564801	-1.002006	 15.261170	 0.144473	-0.384760	-14.675840	-8.846088	 0.000130	 1.793258	-0.000559	 2.002110	 2.285576	-1.094293	-0.000000	 0.000000	 0.000000	 4.062659	 4.538055	-2.274188	 3.501334	 1.047584	 15.042620	-83.283330	-11.359480	-7.166476	-31.343600	 19.382570	-58.588840	 23.714150	 0.808228	-11.604150	 17.613280	 10.160130	 14.143930	 17.146190	 9.684495	 14.094360	-6.032223	 3.893753	-21.788680	 84.304750	 8.998553	 9.099818	 32.000650	 40.142150	 64.546120	-22.135660	-4.798353	 11.745740
-0.356660	 1.045800	 0.520210	-2.435097	 6.938097	 12.459020	 10.931370	-19.958190	 12.716460	-0.072932	 1.103531	 0.000184	-8.907455	-2.530182	 6.794594	-0.000057	 0.645339	 0.000663	 2.518555	-11.306890	 4.866194	-1.256568	 17.854870	 0.208100	-0.478784	-15.258460	-8.788815	 0.000297	 1.574535	 0.000599	 2.310100	 2.271717	-1.083989	-0.000000	 0.000000	 0.000000	 4.676966	 4.504538	-2.266571	 3.695093	 0.592646	 14.920150	-83.396680	-10.114230	-4.818993	-30.421900	 19.508490	-58.341580	 23.619280	 0.605959	-10.247740	 18.041400	 9.377576	 14.151280	 17.435800	 9.368721	 14.094170	-5.832284	 4.105905	-22.109710	 83.733450	 8.799890	 10.077170	 32.265420	 39.505300	 63.738530	-21.555030	-5.528480	 11.517050
-0.364290	 1.042710	 0.510210	-1.896516	 7.161396	 13.827770	 9.526360	-19.615090	 13.745880	-0.003994	 0.083702	-0.000277	-9.124044	-1.339219	 6.441115	 0.000354	 0.611596	-0.000060	 2.249164	-13.589980	 4.119020	-1.318304	 20.970740	 0.252667	-1.082310	-16.166190	-9.585533	-0.000321	 1.593248	 0.000461	 2.176832	 2.241274	-1.024006	-0.000000	 0.000000	 0.000000	 4.406848	 4.448236	-2.139574	 3.157920	 0.453067	 14.906620	-83.785450	-9.316422	-2.968173	-29.959360	 19.323890	-57.068240	 24.012690	 1.582185	-10.327110	 17.702600	 9.109322	 14.011810	 17.988600	 9.140470	 13.889810	-6.562325	 4.440252	-22.168580	 83.146620	 8.703658	 10.686070	 32.135940	 38.935580	 63.157170	-21.640160	-6.037466	 11.528440
-0.372740	 1.039290	 0.498410	-0.880713	 7.380725	 15.359010	 7.869513	-19.821160	 13.759170	-0.003727	 0.083157	-0.000108	-10.172660	-1.822429	 6.062195	-0.000081	 0.613572	-0.000020	 1.524397	-16.147540	 3.098320	-1.594716	 24.687160	 0.354625	-1.780776	-17.243680	-10.412470	-0.000324	 1.635485	-0.001123	 1.865890	 2.157076	-0.910098	-0.000000	 0.000000	 0.000000	 3.777978	 4.289900	-1.895597	 2.743516	 0.566849	 15.240220	-83.962980	-8.305903	-0.948676	-29.141740	 18.936930	-55.277110	 23.869600	 1.344146	-9.384587	 17.968790	 9.000469	 13.856840	 18.627630	 9.110274	 13.611730	-6.847308	 4.726621	-22.209510	 82.728800	 8.632721	 11.000230	 32.401800	 38.302140	 61.693920	-20.790290	-7.476204	 11.139310
-0.372740	 1.039290	 0.498410	-0.880713	 7.380725	 15.359010	 7.869513	-19.821160	 13.759170	-0.003727	 0.083157	-0.000108	-10.172660	-1.822429	 6.062195	-0.000081	 0.613572	-0.000020	 1.524397	-16.147540	 3.098320	-1.594716	 24.687160	 0.354625	-1.780776	-17.243680	-10.412470	-0.000324	 1.635485	-0.001123	 1.865890	 2.157076	-0.910098	-0.000000	 0.000000	 0.000000	 3.777978	 4.289900	-1.895597	 2.743516	 0.566849	 15.240220	-83.962980	-8.305903	-0.948676	-29.141740	 18.936930	-55.277110	 23.869600	 1.344146	-9.384587	 17.968790	 9.000469	 13.856840	 18.627630	 9.110274	 13.611730	-6.847308	 4.726621	-22.209510	 82.728800	 8.632721	 11.000230	 32.401800	 38.302140	 61.693920	-20.790290	-7.476204	 11.139310
-0.387330	 1.040800	 0.478850	-0.146944	 7.718256	 18.782560	 6.056239	-21.400260	 7.321769	-0.005651	 0.083206	 0.000499	-11.376450	 0.189748	 6.428010	-0.000156	 0.558895	 0.000986	 0.522201	-17.915510	 0.689527	-1.586319	 25.582650	 0.365734	-3.000392	-16.382120	-11.791540	 0.000196	 1.684295	-0.001058	 1.671499	 1.997554	-0.764025	-0.000000	 0.000000	 0.000000	 3.381350	 3.980142	-1.589123	 2.496751	 1.020262	 15.367430	-83.721580	-7.812387	 1.476514	-28.558880	 18.869500	-52.652610	 22.182810	-0.281348	-7.590147	 18.302300	 9.559754	 13.631800	 18.510890	 9.590544	 13.504860	-7.149774	 5.261554	-22.670220	 83.610430	 8.492620	 10.434480	 34.255050	 36.694340	 59.199710	-14.278570	-14.220820	 9.046683
-0.393960	 1.043950	 0.469870	 0.142374	 7.842870	 20.382140	 5.188260	-22.581850	 4.400215	-0.151303	 2.199015	 0.001203	-12.040500	 0.231973	 6.071715	-0.000203	 0.508511	 0.001061	-0.074740	-17.896810	-0.777575	-1.491314	 24.397950	 0.329474	-3.522256	-15.203300	-12.035000	 0.000247	 1.712790	 0.000401	 1.554090	 2.024051	-0.657588	-0.000000	 0.000000	 0.000000	 3.142121	 4.037069	-1.373643	 2.169155	 1.091610	 15.507200	-83.707470	-7.615076	 1.977204	-28.467860	 18.639280	-52.295400	 20.593570	-0.436202	-6.759850	 18.103330	 9.771076	 13.765030	 18.372680	 9.660439	 13.589010	-7.436852	 5.444210	-22.488820	 83.953450	 8.482738	 10.025370	 35.408120	 35.867080	 58.908840	-12.224400	-14.400160	 8.171642
